<svg width="35" height="35" viewBox="0 0 35 35" fill="none" xmlns="http://www.w3.org/2000/svg">
<path d="M27.8223 3.14453H7.17773C3.21983 3.14453 0 6.36436 0 10.3223V21.4082C0 24.5664 2.07348 27.317 5.07809 28.1974L8.54465 31.6643C8.73718 31.8565 8.9978 31.9647 9.26991 31.9647C9.54174 31.9647 9.80263 31.8565 9.99489 31.6643L13.1749 28.484H27.8223C31.7802 28.484 35 25.2641 35 21.3062V10.3223C35 6.36436 31.7802 3.14453 27.8223 3.14453ZM32.9492 21.3062C32.9492 24.1333 30.6493 26.4332 27.8223 26.4332H12.7504C12.4785 26.4332 12.2176 26.5413 12.0254 26.7336L9.26991 29.4891L6.33526 26.5544C6.20361 26.4228 6.03859 26.3293 5.85781 26.2844C3.61637 25.7266 2.05078 23.7215 2.05078 21.4082V10.3223C2.05078 7.49523 4.3507 5.19531 7.17773 5.19531H27.8223C30.6493 5.19531 32.9492 7.49523 32.9492 10.3223V21.3062Z" fill="black"/>
<path d="M24.0107 12.9765H10.9893C10.4229 12.9765 9.96387 13.4358 9.96387 14.0019C9.96387 14.5683 10.4229 15.0273 10.9893 15.0273H24.0107C24.577 15.0273 25.036 14.5683 25.036 14.0019C25.036 13.4358 24.577 12.9765 24.0107 12.9765Z" fill="black"/>
<path d="M24.0107 16.6012H10.9893C10.4229 16.6012 9.96387 17.0602 9.96387 17.6266C9.96387 18.1929 10.4229 18.652 10.9893 18.652H24.0107C24.577 18.652 25.036 18.1929 25.036 17.6266C25.036 17.0602 24.577 16.6012 24.0107 16.6012Z" fill="black"/>
</svg>
