<svg width="200" height="200" viewBox="0 0 200 200" fill="none" xmlns="http://www.w3.org/2000/svg">
<path d="M100 0C70.9223 0 47.2656 23.6566 47.2656 52.7344C47.2656 81.8121 70.9223 105.469 100 105.469C129.078 105.469 152.734 81.8121 152.734 52.7344C152.734 23.6566 129.078 0 100 0Z" fill="black"/>
<path d="M165.612 139.92C151.174 125.261 132.035 117.188 111.719 117.188H88.2812C67.9656 117.188 48.8258 125.261 34.3883 139.92C20.0215 154.507 12.1094 173.763 12.1094 194.141C12.1094 197.377 14.7328 200 17.9688 200H182.031C185.267 200 187.891 197.377 187.891 194.141C187.891 173.763 179.979 154.507 165.612 139.92Z" fill="black"/>
</svg>
